<svg width="173" height="208" viewBox="0 0 173 208" fill="none" xmlns="http://www.w3.org/2000/svg">
<path d="M86.5 93.7632C92.8531 93.7632 99.0636 92.023 104.346 88.7626C109.628 85.5022 113.746 80.8681 116.177 75.4463C118.608 70.0244 119.244 64.0584 118.005 58.3026C116.765 52.5468 113.706 47.2598 109.214 43.1101C104.721 38.9604 98.9978 36.1344 92.7667 34.9896C86.5356 33.8447 80.077 34.4323 74.2074 36.6781C68.3379 38.9239 63.3211 42.727 59.7915 47.6065C56.2619 52.486 54.378 58.2228 54.378 64.0913C54.378 71.9608 57.7623 79.5079 63.7863 85.0725C69.8104 90.6371 77.9807 93.7632 86.5 93.7632Z" fill="white"/>
<path fill-rule="evenodd" clip-rule="evenodd" d="M173 29.6719C173 13.2846 159.646 2.86746e-07 143.172 0H29.8276C13.3543 0 2.88288e-07 13.2846 0 29.6719V142.425C0 158.812 13.3543 172.097 29.8276 172.097H29.5293V208L76.9552 172.097H143.172C159.646 172.097 173 158.812 173 142.425V29.6719ZM17.8966 28.485C17.8966 21.9301 23.2383 16.6163 29.8276 16.6163H143.172C149.762 16.6163 155.103 21.9301 155.103 28.485V141.238C155.103 146.769 151.301 151.416 146.155 152.733V136.152C146.155 113.601 106.41 102.241 86.5 102.241C66.5901 102.241 26.8448 113.601 26.8448 136.152V152.733C21.6989 151.416 17.8966 146.769 17.8966 141.238V28.485ZM86.5 93.7632C92.8531 93.7632 99.0636 92.023 104.346 88.7626C109.628 85.5022 113.746 80.8681 116.177 75.4463C118.608 70.0244 119.244 64.0584 118.005 58.3026C116.765 52.5468 113.706 47.2598 109.214 43.1101C104.721 38.9604 98.9978 36.1344 92.7667 34.9896C86.5356 33.8447 80.077 34.4323 74.2074 36.6781C68.3379 38.9239 63.3211 42.727 59.7915 47.6065C56.2619 52.486 54.378 58.2228 54.378 64.0913C54.378 71.9608 57.7623 79.5079 63.7863 85.0725C69.8104 90.6371 77.9807 93.7632 86.5 93.7632Z" fill="white"/>
</svg>
