<svg width="849" height="208" viewBox="0 0 849 208" fill="none" xmlns="http://www.w3.org/2000/svg">
<path d="M86.5 93.7632C92.8531 93.7632 99.0636 92.023 104.346 88.7626C109.628 85.5022 113.746 80.8681 116.177 75.4463C118.608 70.0244 119.244 64.0584 118.005 58.3026C116.765 52.5468 113.706 47.2598 109.214 43.1101C104.721 38.9604 98.9978 36.1344 92.7667 34.9896C86.5356 33.8447 80.077 34.4323 74.2074 36.6781C68.3379 38.9239 63.3211 42.727 59.7915 47.6065C56.2619 52.486 54.378 58.2228 54.378 64.0913C54.378 71.9608 57.7623 79.5079 63.7863 85.0725C69.8104 90.6371 77.9807 93.7632 86.5 93.7632Z" fill="white"/>
<path d="M299.48 37.4V58.68H265.08V143H237.56V58.68H203V37.4H299.48Z" fill="white"/>
<path d="M303.135 143V63H327.135L328.255 80.28C330.282 74.3067 333.268 69.6667 337.215 66.36C341.268 63.0533 346.388 61.4 352.575 61.4C354.602 61.4 356.308 61.56 357.695 61.88C359.188 62.2 360.362 62.6267 361.215 63.16L358.495 85.56C357.428 85.1333 356.042 84.8133 354.335 84.6C352.735 84.28 350.762 84.12 348.415 84.12C345.215 84.12 342.228 84.8133 339.455 86.2C336.682 87.5867 334.442 89.6667 332.735 92.44C331.135 95.1067 330.335 98.52 330.335 102.68V143H303.135Z" fill="white"/>
<path d="M409.987 144.6C401.134 144.6 393.454 142.947 386.948 139.64C380.548 136.333 375.588 131.587 372.068 125.4C368.548 119.213 366.788 111.747 366.788 103C366.788 94.2533 368.548 86.7867 372.068 80.6C375.588 74.4133 380.494 69.6667 386.788 66.36C393.188 63.0533 400.494 61.4 408.707 61.4C417.134 61.4 424.281 63.0533 430.147 66.36C436.121 69.56 440.654 74.04 443.747 79.8C446.841 85.4533 448.388 91.96 448.388 99.32C448.388 101.24 448.334 103.16 448.228 105.08C448.121 107 447.961 108.6 447.747 109.88H384.388V95.32H435.747L422.788 100.28C422.788 93.88 421.614 88.9733 419.267 85.56C417.027 82.1467 413.507 80.44 408.707 80.44C405.294 80.44 402.361 81.24 399.908 82.84C397.561 84.44 395.747 86.9467 394.467 90.36C393.294 93.7733 392.707 98.1467 392.707 103.48C392.707 108.707 393.401 112.973 394.788 116.28C396.174 119.48 398.147 121.827 400.707 123.32C403.267 124.707 406.361 125.4 409.987 125.4C414.041 125.4 417.241 124.6 419.587 123C422.041 121.4 423.854 119.16 425.027 116.28L446.788 123.48C445.294 128.067 442.681 131.96 438.948 135.16C435.321 138.253 430.948 140.6 425.828 142.2C420.814 143.8 415.534 144.6 409.987 144.6Z" fill="white"/>
<path d="M508.244 92.28C508.244 88.5467 507.177 85.6133 505.044 83.48C503.017 81.24 500.244 80.12 496.724 80.12C493.204 80.12 490.164 81.0267 487.604 82.84C485.15 84.5467 483.444 87.64 482.484 92.12L459.444 86.68C460.937 79 464.884 72.8667 471.284 68.28C477.684 63.6933 486.697 61.4 498.324 61.4C506.11 61.4 512.724 62.5733 518.164 64.92C523.71 67.16 527.924 70.5733 530.804 75.16C533.79 79.64 535.284 85.1867 535.284 91.8V121.08C535.284 125.24 537.15 127.32 540.884 127.32C542.804 127.32 544.35 127.107 545.524 126.68L543.924 142.2C540.724 143.693 536.83 144.44 532.244 144.44C528.084 144.44 524.404 143.8 521.204 142.52C518.004 141.133 515.497 139.107 513.684 136.44C511.87 133.667 510.964 130.2 510.964 126.04V125.08L514.004 123.96C514.004 128.547 512.617 132.387 509.844 135.48C507.177 138.573 503.657 140.867 499.284 142.36C495.017 143.853 490.537 144.6 485.844 144.6C480.404 144.6 475.657 143.747 471.604 142.04C467.55 140.333 464.404 137.88 462.164 134.68C460.03 131.373 458.964 127.32 458.964 122.52C458.964 116.76 460.67 112.013 464.084 108.28C467.604 104.44 473.097 101.773 480.564 100.28L510.804 94.04L510.644 108.44L495.284 111.64C492.084 112.28 489.684 113.24 488.084 114.52C486.59 115.693 485.844 117.507 485.844 119.96C485.844 122.307 486.697 124.067 488.404 125.24C490.11 126.413 492.137 127 494.484 127C496.297 127 498.004 126.733 499.604 126.2C501.31 125.667 502.804 124.867 504.084 123.8C505.364 122.627 506.377 121.187 507.124 119.48C507.87 117.773 508.244 115.747 508.244 113.4V92.28Z" fill="white"/>
<path d="M585.075 144.6C578.462 144.6 572.648 143 567.635 139.8C562.728 136.493 558.888 131.747 556.115 125.56C553.448 119.373 552.115 111.96 552.115 103.32C552.115 94.36 553.502 86.7867 556.275 80.6C559.155 74.4133 563.102 69.6667 568.115 66.36C573.235 63.0533 579.102 61.4 585.715 61.4C592.968 61.4 598.782 63.64 603.155 68.12C607.635 72.4933 610.515 78.0933 611.795 84.92L609.235 88.28V29.08H636.435V143H612.115L610.355 115.8L613.555 118.2C612.915 123.533 611.262 128.173 608.595 132.12C606.035 136.067 602.728 139.16 598.675 141.4C594.728 143.533 590.195 144.6 585.075 144.6ZM594.515 124.6C597.608 124.6 600.222 123.8 602.355 122.2C604.595 120.493 606.302 117.987 607.475 114.68C608.648 111.373 609.235 107.32 609.235 102.52C609.235 98.04 608.648 94.2533 607.475 91.16C606.408 87.96 604.755 85.56 602.515 83.96C600.382 82.2533 597.768 81.4 594.675 81.4C589.982 81.4 586.248 83.16 583.475 86.68C580.808 90.0933 579.475 95.5333 579.475 103C579.475 110.467 580.808 115.96 583.475 119.48C586.142 122.893 589.822 124.6 594.515 124.6Z" fill="white"/>
<path d="M735.307 37.4V102.36C735.307 115.693 731.467 126.093 723.787 133.56C716.107 140.92 705.228 144.6 691.148 144.6C680.801 144.6 672.481 142.787 666.188 139.16C659.894 135.427 655.574 130.307 653.227 123.8C650.881 117.187 650.401 109.667 651.787 101.24L678.667 96.44C677.387 106.147 677.814 113.027 679.948 117.08C682.188 121.027 686.241 123 692.107 123C697.867 123 701.921 121.08 704.268 117.24C706.614 113.4 707.787 107.48 707.787 99.48V37.4H735.307Z" fill="white"/>
<path d="M848.867 143H820.547L813.188 119.16H777.028L769.508 143H741.828L778.948 37.4H811.908L848.867 143ZM782.148 100.44H808.068L795.107 57.72L782.148 100.44Z" fill="white"/>
<path fill-rule="evenodd" clip-rule="evenodd" d="M173 29.6719C173 13.2846 159.646 2.86746e-07 143.172 0H29.8276C13.3543 0 2.88288e-07 13.2846 0 29.6719V142.425C0 158.812 13.3543 172.097 29.8276 172.097H29.5293V208L76.9552 172.097H143.172C159.646 172.097 173 158.812 173 142.425V29.6719ZM17.8966 28.485C17.8966 21.9301 23.2383 16.6163 29.8276 16.6163H143.172C149.762 16.6163 155.103 21.9301 155.103 28.485V141.238C155.103 146.769 151.301 151.416 146.155 152.733V136.152C146.155 113.601 106.41 102.241 86.5 102.241C66.5901 102.241 26.8448 113.601 26.8448 136.152V152.733C21.6989 151.416 17.8966 146.769 17.8966 141.238V28.485ZM86.5 93.7632C92.8531 93.7632 99.0636 92.023 104.346 88.7626C109.628 85.5022 113.746 80.8681 116.177 75.4463C118.608 70.0244 119.244 64.0584 118.005 58.3026C116.765 52.5468 113.706 47.2598 109.214 43.1101C104.721 38.9604 98.9978 36.1344 92.7667 34.9896C86.5356 33.8447 80.077 34.4323 74.2074 36.6781C68.3379 38.9239 63.3211 42.727 59.7915 47.6065C56.2619 52.486 54.378 58.2228 54.378 64.0913C54.378 71.9608 57.7623 79.5079 63.7863 85.0725C69.8104 90.6371 77.9807 93.7632 86.5 93.7632Z" fill="white"/>
</svg>
