<svg width="190" height="46" viewBox="0 0 190 46" fill="none" xmlns="http://www.w3.org/2000/svg">
<path d="M19.3611 20.7361C20.7831 20.7361 22.1732 20.3512 23.3555 19.6302C24.5379 18.9091 25.4594 17.8843 26.0036 16.6852C26.5478 15.4862 26.6902 14.1668 26.4127 12.8938C26.1353 11.6209 25.4506 10.4517 24.445 9.53397C23.4395 8.61625 22.1584 7.99127 20.7637 7.73807C19.3691 7.48487 17.9234 7.61483 16.6097 8.11149C15.2959 8.60816 14.173 9.44923 13.383 10.5284C12.593 11.6075 12.1713 12.8762 12.1713 14.174C12.1713 15.9144 12.9288 17.5835 14.2771 18.8141C15.6255 20.0447 17.4542 20.7361 19.3611 20.7361Z" fill="#EB2E00"/>
<path d="M67.0319 8.27115V12.9773H59.3322V31.625H53.1725V12.9773H45.437V8.27115H67.0319Z" fill="#EB2E00"/>
<path d="M67.85 31.625V13.9327H73.2219L73.4725 17.7542C73.9262 16.4332 74.5947 15.407 75.478 14.6758C76.3853 13.9445 77.5313 13.5788 78.916 13.5788C79.3697 13.5788 79.7517 13.6142 80.062 13.685C80.3963 13.7558 80.6589 13.8501 80.8499 13.9681L80.2411 18.9219C80.0023 18.8276 79.692 18.7568 79.31 18.7096C78.9518 18.6388 78.5102 18.6035 77.9849 18.6035C77.2687 18.6035 76.6002 18.7568 75.9794 19.0635C75.3587 19.3701 74.8573 19.8301 74.4753 20.4435C74.1172 21.0332 73.9381 21.7881 73.9381 22.7081V31.625H67.85Z" fill="#EB2E00"/>
<path d="M91.7665 31.9788C89.7849 31.9788 88.0659 31.6132 86.6095 30.8819C85.177 30.1506 84.0669 29.1009 83.279 27.7327C82.4911 26.3645 82.0972 24.7132 82.0972 22.7788C82.0972 20.8445 82.4911 19.1932 83.279 17.825C84.0669 16.4568 85.1651 15.407 86.5737 14.6758C88.0062 13.9445 89.6417 13.5788 91.48 13.5788C93.3661 13.5788 94.9658 13.9445 96.2789 14.6758C97.6159 15.3835 98.6306 16.3742 99.323 17.6481C100.015 18.8983 100.362 20.3373 100.362 21.965C100.362 22.3896 100.35 22.8142 100.326 23.2388C100.302 23.6635 100.266 24.0173 100.218 24.3004H86.0365V21.0804H97.5323L94.6315 22.1773C94.6315 20.7619 94.3689 19.6768 93.8437 18.9219C93.3423 18.167 92.5544 17.7896 91.48 17.7896C90.716 17.7896 90.0595 17.9665 89.5103 18.3204C88.9851 18.6742 88.5792 19.2286 88.2927 19.9835C88.0301 20.7383 87.8988 21.7055 87.8988 22.885C87.8988 24.0409 88.054 24.9845 88.3643 25.7158C88.6747 26.4235 89.1164 26.9424 89.6894 27.2727C90.2624 27.5794 90.9548 27.7327 91.7665 27.7327C92.6738 27.7327 93.39 27.5558 93.9153 27.2019C94.4644 26.8481 94.8703 26.3527 95.1329 25.7158L100.003 27.3081C99.6691 28.3224 99.0842 29.1835 98.2486 29.8912C97.4368 30.5753 96.458 31.0942 95.312 31.4481C94.1898 31.8019 93.008 31.9788 91.7665 31.9788Z" fill="#EB2E00"/>
<path d="M113.759 20.4081C113.759 19.5824 113.52 18.9337 113.043 18.4619C112.589 17.9665 111.968 17.7188 111.181 17.7188C110.393 17.7188 109.712 17.9194 109.139 18.3204C108.59 18.6978 108.208 19.3819 107.993 20.3727L102.836 19.1696C103.17 17.4712 104.054 16.1147 105.486 15.1004C106.919 14.086 108.936 13.5788 111.539 13.5788C113.281 13.5788 114.762 13.8383 115.979 14.3573C117.221 14.8527 118.164 15.6076 118.809 16.6219C119.477 17.6127 119.811 18.8394 119.811 20.3019V26.7773C119.811 27.6973 120.229 28.1573 121.065 28.1573C121.494 28.1573 121.841 28.1101 122.103 28.0158L121.745 31.4481C121.029 31.7783 120.157 31.9435 119.131 31.9435C118.2 31.9435 117.376 31.8019 116.66 31.5188C115.944 31.2122 115.382 30.764 114.977 30.1742C114.571 29.5609 114.368 28.7942 114.368 27.8742V27.6619L115.048 27.4142C115.048 28.4286 114.738 29.2778 114.117 29.9619C113.52 30.646 112.732 31.1532 111.754 31.4835C110.799 31.8137 109.796 31.9788 108.745 31.9788C107.528 31.9788 106.465 31.7901 105.558 31.4127C104.651 31.0353 103.946 30.4927 103.445 29.785C102.968 29.0537 102.729 28.1573 102.729 27.0958C102.729 25.8219 103.111 24.7722 103.875 23.9465C104.663 23.0973 105.892 22.5076 107.563 22.1773L114.332 20.7973L114.296 23.9819L110.858 24.6896C110.142 24.8312 109.605 25.0435 109.247 25.3265C108.912 25.586 108.745 25.987 108.745 26.5296C108.745 27.0486 108.936 27.4378 109.318 27.6973C109.7 27.9568 110.154 28.0865 110.679 28.0865C111.085 28.0865 111.467 28.0276 111.825 27.9096C112.207 27.7917 112.541 27.6147 112.828 27.3788C113.114 27.1194 113.341 26.8009 113.508 26.4235C113.675 26.046 113.759 25.5978 113.759 25.0788V20.4081Z" fill="#EB2E00"/>
<path d="M130.956 31.9788C129.476 31.9788 128.175 31.625 127.052 30.9173C125.954 30.186 125.095 29.1363 124.474 27.7681C123.877 26.3999 123.579 24.7604 123.579 22.8496C123.579 20.8681 123.889 19.1932 124.51 17.825C125.154 16.4568 126.038 15.407 127.16 14.6758C128.306 13.9445 129.619 13.5788 131.099 13.5788C132.723 13.5788 134.024 14.0742 135.003 15.065C136.006 16.0322 136.65 17.2706 136.937 18.7804L136.364 19.5235V6.43115H142.452V31.625H137.008L136.614 25.6096L137.331 26.1404C137.187 27.3199 136.817 28.346 136.22 29.2188C135.647 30.0917 134.907 30.7758 134 31.2711C133.117 31.7429 132.102 31.9788 130.956 31.9788ZM133.069 27.5558C133.761 27.5558 134.346 27.3788 134.824 27.025C135.325 26.6476 135.707 26.0932 135.97 25.3619C136.232 24.6306 136.364 23.7342 136.364 22.6727C136.364 21.6819 136.232 20.8445 135.97 20.1604C135.731 19.4527 135.361 18.9219 134.86 18.5681C134.382 18.1906 133.797 18.0019 133.105 18.0019C132.054 18.0019 131.219 18.3912 130.598 19.1696C130.001 19.9245 129.703 21.1276 129.703 22.7788C129.703 24.4301 130.001 25.645 130.598 26.4235C131.195 27.1783 132.018 27.5558 133.069 27.5558Z" fill="#EB2E00"/>
<path d="M164.582 8.27115V22.6373C164.582 25.586 163.723 27.886 162.004 29.5373C160.285 31.165 157.849 31.9788 154.698 31.9788C152.382 31.9788 150.52 31.5778 149.111 30.7758C147.703 29.9501 146.736 28.8178 146.21 27.3788C145.685 25.9163 145.578 24.2532 145.888 22.3896L151.905 21.3281C151.618 23.4747 151.714 24.9963 152.191 25.8927C152.692 26.7655 153.6 27.2019 154.913 27.2019C156.202 27.2019 157.109 26.7773 157.635 25.9281C158.16 25.0788 158.422 23.7696 158.422 22.0004V8.27115H164.582Z" fill="#EB2E00"/>
<path d="M190 31.625H183.661L182.014 26.3527H173.92L172.237 31.625H166.041L174.35 8.27115H181.727L190 31.625ZM175.066 22.2127H180.868L177.967 12.765L175.066 22.2127Z" fill="#EB2E00"/>
<path fill-rule="evenodd" clip-rule="evenodd" d="M38.7222 6.56205C38.7222 2.93793 35.7331 6.34151e-08 32.0459 0H6.67624C2.98905 0 6.45269e-08 2.93793 0 6.56205V31.4979C0 35.122 2.98905 38.0599 6.67624 38.0599H6.60948V46L17.2247 38.0599H32.0459C35.7331 38.0599 38.7222 35.122 38.7222 31.4979V6.56205ZM4.00574 6.29957C4.00574 4.84992 5.20136 3.67475 6.67624 3.67475H32.0459C33.5208 3.67475 34.7164 4.84992 34.7164 6.29957V31.2354C34.7164 32.4584 33.8654 33.4861 32.7136 33.7775V30.1105C32.7136 25.1233 23.8175 22.611 19.3611 22.611C14.9047 22.611 6.00861 25.1233 6.00861 30.1105V33.7775C4.85681 33.4861 4.00574 32.4584 4.00574 31.2354V6.29957ZM19.3611 20.7361C20.7831 20.7361 22.1732 20.3512 23.3555 19.6302C24.5379 18.9091 25.4594 17.8843 26.0036 16.6852C26.5478 15.4862 26.6902 14.1668 26.4127 12.8938C26.1353 11.6209 25.4506 10.4517 24.445 9.53397C23.4395 8.61625 22.1584 7.99127 20.7637 7.73807C19.3691 7.48487 17.9234 7.61483 16.6097 8.11149C15.2959 8.60816 14.173 9.44923 13.383 10.5284C12.593 11.6075 12.1713 12.8762 12.1713 14.174C12.1713 15.9144 12.9288 17.5835 14.2771 18.8141C15.6255 20.0447 17.4542 20.7361 19.3611 20.7361Z" fill="#EB2E00"/>
</svg>
